<svg xmlns="http://www.w3.org/2000/svg" viewBox="0 0 560 150" font-family="'Clash Display','Archivo','Segoe UI',sans-serif">
  <g transform="translate(18,44) scale(0.72)" fill="none" stroke="#ffffff" stroke-width="3" stroke-linecap="round" stroke-linejoin="round">
    <path d="M10 60 V44 H26 L42 28 H60 V60 Z"/>
    <rect x="58" y="24" width="96" height="36" rx="2"/>
    <path d="M88 24 V60 M118 24 V60"/>
    <path d="M44 30 L31 43 M50 30 V60"/>
    <path d="M6 72 H156 M6 60 H10"/>
    <circle cx="30" cy="64" r="8"/><circle cx="100" cy="64" r="8"/><circle cx="126" cy="64" r="8"/>
  </g>
  <g fill="#ffffff"><circle cx="39.6" cy="90.1" r="1.7"/><circle cx="90" cy="90.1" r="1.7"/><circle cx="108.7" cy="90.1" r="1.7"/></g>
  <text x="156" y="74" font-size="34" font-weight="600" letter-spacing="1" fill="#ffffff">FAST &amp; SMART</text>
  <text x="158" y="102" font-size="15" font-weight="600" letter-spacing="11" fill="#a1a1aa">LOGISTICS</text>
  <rect x="158" y="116" width="84" height="6" rx="1.5" fill="#e11d2a"/>
  <rect x="250" y="116" width="84" height="6" rx="1.5" fill="#1d4ed8"/>
</svg>
